<svg xmlns="http://www.w3.org/2000/svg" viewBox="0 0 70 70">
    <path fill="#29ABE2" d="M.78 22.36c0-1.17.33-2.05.98-2.62.65-.57 1.71-.86 3.16-.86 1.45 0 2.52.29 3.18.88.67.59 1 1.46 1 2.6 0 2.3-1.4 3.44-4.18 3.44-2.76.01-4.14-1.14-4.14-3.44zm8.03 28.33H.98V28.01h7.83v22.68zm16.42.4c-3.78 0-6.71-1-8.8-3.01-2.09-2.01-3.13-4.87-3.13-8.58 0-3.83.97-6.77 2.9-8.82 1.94-2.05 4.7-3.07 8.29-3.07 3.42 0 6.06.89 7.92 2.67 1.86 1.78 2.79 4.35 2.79 7.7v3.48h-14c.05 1.27.52 2.26 1.39 2.98.87.72 2.07 1.08 3.57 1.08 1.37 0 2.64-.13 3.79-.39s2.41-.7 3.75-1.33v5.62a13.8 13.8 0 0 1-3.8 1.3c-1.3.25-2.86.37-4.67.37zm-.46-18.16c-.92 0-1.69.29-2.31.87-.62.58-.98 1.49-1.09 2.73h6.73c-.03-1.09-.34-1.97-.93-2.62-.6-.65-1.4-.98-2.4-.98zm32.37 10.8c0 2.43-.83 4.26-2.48 5.5-1.65 1.24-4.03 1.86-7.13 1.86-1.68 0-3.14-.09-4.38-.27a18.55 18.55 0 0 1-3.8-.99v-6.27c1.21.53 2.54.97 3.99 1.32 1.45.35 2.74.52 3.87.52 1.7 0 2.54-.39 2.54-1.16 0-.4-.24-.76-.71-1.07-.47-.31-1.85-.92-4.13-1.83-2.08-.85-3.54-1.82-4.36-2.91-.83-1.09-1.24-2.47-1.24-4.13 0-2.11.81-3.75 2.44-4.92s3.93-1.76 6.91-1.76c1.5 0 2.9.16 4.21.49 1.31.33 2.68.8 4.09 1.43l-2.12 5.04a23.82 23.82 0 0 0-3.3-1.19c-1.16-.33-2.11-.49-2.84-.49-1.28 0-1.92.31-1.92.94 0 .39.22.72.67.99.45.27 1.74.83 3.87 1.67 1.59.65 2.77 1.29 3.55 1.92.78.63 1.35 1.37 1.72 2.21.37.84.55 1.88.55 3.1zm4.18-21.37c0-1.17.33-2.05.98-2.62.65-.57 1.71-.86 3.16-.86 1.45 0 2.52.29 3.18.88.67.59 1 1.46 1 2.6 0 2.3-1.4 3.44-4.18 3.44-2.76.01-4.14-1.14-4.14-3.44zm8.03 28.33h-7.83V28.01h7.83v22.68z"/>
</svg>
